<svg viewBox="0 0 100 100" fill="none" xmlns="http://www.w3.org/2000/svg">
 <path d="M50 95C75 95 95 75 95 50C95 25 75 5 50 5C25 5 5 25 5 50C5 75 25 95 50 95Z" fill="#000000"/>

  <circle cx="35" cy="30" r="3" fill="white"/>
  <circle cx="40" cy="15" r="3" fill="white"/>
  <circle cx="50" cy="25" r="3" fill="white"/>
  <circle cx="65" cy="30" r="3" fill="white"/>
  <circle cx="75" cy="40" r="3" fill="white"/>
  <path d="M50 35V50M50 50H40M50 50H60" stroke="white" stroke-width="5" stroke-linecap="round"/>
  <path d="M30 60H45M55 60H70" stroke="white" stroke-width="5" stroke-linecap="round"/>
  <path d="M25 70H40M60 70H75" stroke="white" stroke-width="5" stroke-linecap="round"/>
</svg>